<?xml version="1.0" standalone="no"?>
<!DOCTYPE svg PUBLIC "-//W3C//DTD SVG 20010904//EN"
 "http://www.w3.org/TR/2001/REC-SVG-20010904/DTD/svg10.dtd">
<svg version="1.0" xmlns="http://www.w3.org/2000/svg"
 width="1000.000000pt" height="1000.000000pt" viewBox="0 0 1000.000000 1000.000000"
 preserveAspectRatio="xMidYMid meet">
<metadata>
Created by potrace 1.14, written by Peter Selinger 2001-2017
</metadata>
<g transform="translate(0.000000,1000.000000) scale(0.100000,-0.100000)"
fill="#000000" stroke="none">
<path d="M3645 5008 l0 -2493 53 -1 c29 -1 56 4 60 10 4 6 7 1128 7 2494 l0
2482 -60 0 -60 0 0 -2492z"/>
<path d="M8045 6423 c-185 -21 -415 -95 -520 -167 -16 -12 -30 -19 -30 -16 0
16 -200 -137 -273 -209 -143 -139 -224 -253 -308 -431 -29 -61 -81 -215 -89
-264 -3 -17 -8 -38 -10 -46 -27 -95 -27 -392 0 -530 3 -14 8 -41 11 -60 4 -19
11 -41 17 -47 5 -7 7 -13 4 -13 -16 0 68 -203 130 -315 31 -55 31 -56 68 -101
14 -18 25 -35 25 -38 0 -14 172 -192 230 -238 176 -140 388 -242 590 -282 14
-3 34 -7 45 -9 111 -24 363 -25 485 -2 71 13 92 18 169 41 103 31 177 63 296
128 49 27 156 104 211 153 141 121 245 253 328 413 50 97 122 280 110 280 -2
0 0 8 5 18 5 10 12 38 16 62 3 25 8 52 10 60 16 59 21 243 10 360 -39 414
-281 799 -658 1044 -129 84 -352 173 -482 191 -22 4 -49 9 -60 12 -22 7 -283
11 -330 6z m295 -357 c14 -3 41 -9 60 -12 196 -35 447 -191 569 -354 14 -19
34 -44 44 -54 9 -11 17 -26 17 -33 0 -7 4 -13 9 -13 5 0 13 -10 17 -22 4 -13
10 -25 13 -28 10 -7 68 -138 84 -190 13 -41 18 -57 34 -125 2 -11 6 -43 8 -72
1 -28 5 -55 7 -60 10 -19 1 -171 -17 -278 -23 -147 -121 -357 -219 -472 -76
-89 -167 -166 -265 -224 -41 -24 -77 -44 -80 -45 -3 0 -24 -8 -46 -18 -51 -22
-167 -55 -225 -63 -63 -9 -266 -9 -320 1 -404 68 -725 363 -829 761 -21 81
-25 123 -26 255 0 141 8 221 30 290 3 10 8 28 10 39 2 11 10 35 18 53 8 18 26
58 40 89 132 299 446 532 777 577 60 8 250 7 290 -2z"/>
<path d="M5998 6401 c-10 -3 -56 -5 -103 -4 l-85 2 0 -32 c-1 -18 -2 -552 -4
-1187 -1 -635 -6 -1168 -9 -1185 -4 -16 -10 -41 -14 -55 -3 -14 -7 -32 -8 -40
-2 -8 -10 -35 -19 -59 -76 -206 -262 -346 -498 -376 -29 -4 -54 -8 -56 -10 -2
-2 -4 -257 -3 -332 1 -19 6 -21 49 -18 218 15 432 95 581 220 54 44 124 123
168 189 45 66 117 220 127 268 3 13 9 38 15 56 5 17 8 32 6 32 -3 0 -1 10 4
23 21 54 24 250 25 1343 l1 1162 -70 -2 c-38 -1 -74 1 -80 5 -5 4 -18 4 -27 0z"/>
<path d="M1329 5257 c0 -628 -2 -1160 -4 -1182 -17 -195 -74 -333 -181 -439
-96 -95 -218 -152 -366 -171 -52 -7 -72 -20 -61 -38 4 -7 5 -141 2 -212 -3
-44 6 -105 16 -108 21 -9 140 7 235 29 73 18 221 77 262 106 14 10 31 18 37
18 6 0 11 4 11 8 0 4 14 16 32 27 88 51 234 239 290 370 23 55 54 152 64 200
9 42 15 81 21 120 6 44 12 2383 6 2401 -3 7 -65 11 -183 11 l-180 1 -1 -1141z"/>
</g>
</svg>
